<?xml version="1.0" encoding="UTF-8"?>
<svg width="1200pt" height="1200pt" version="1.1" viewBox="0 0 1200 1200" xmlns="http://www.w3.org/2000/svg">
 <path d="m893.16 619.52c6.0781 7.4219 11.852 14.973 17.098 22.738 0 0 4.2695 6.6836 7.7539 12.262 57.488 92.051 70.68 209.95 34.16 313.03-17.684 49.922-46.508 95.707-83.73 133.55l-1.8945 1.9453-1.9727 1.9219c-14.781 12.398-34.613 17.258-53.855 21.816-39.391 9.3438-79.887 13.379-120.38 15.914-79.234 4.9609-159.12 3.7617-237.35-7.7266-26.891-3.957-54.102-8.5469-79.09-19.18-6.6211-2.8164-13-6.1211-18.594-10.824l-1.9766-1.9219c-49.191-50.379-84.957-114.4-99.117-184.18-16.984-83.715-3.1562-173.66 38.137-248.19l0.17188-0.30859c-9.7227-50.211-39.055-94.727-57.684-141.7-35.137-88.598-42.961-190.71-22.414-279.04 11.965-51.418 35.562-100.81 74.406-136.54 22.164-20.387 48.84-35.668 77.531-45.105 27.059-8.9023 55.676-12.703 84.055-12.996 26.836-0.23828 53.676-0.44531 80.48-0.44141 84.891 0.046875 169.12 0.33203 255.55 0.44531 40.531 0.15625 81.77 8.8203 116.07 30.555 22.574 14.301 41.629 33.969 55.984 56.453 24.418 38.234 35.723 83.316 40.023 126.59 6.2695 63.121-0.85156 127.52-17.484 188.56-8.0977 29.715-18.953 59.074-33.281 85.93-13.723 25.883-25.383 52.832-32.02 81.145-5.1094-7.3125-10.473-14.438-16.082-21.355 3.5938-11.93 7.8945-23.676 12.758-35.215-16.07-26.43-39.523-48.207-67.562-60.465-12.969-5.668-26.68-9.4883-40.633-11.914-5.0039 5.332-10.656 10.113-16.734 14.418-7.2578-3.9297-14.66-7.625-22.195-11.074 14.473-8.1211 27.199-18.625 33.805-32.836 0.22656-0.48438 0.44922-0.96875 0.67578-1.457 20.922-45.453 35.789-95.133 33.641-145.1-1.2031-28.035-8.1719-57.098-29.637-76.062-14.641-12.934-34.828-18.27-54.57-18.375-0.39453 0-0.78516 0.003906-1.1797 0.003906-86.438 0.77734-172.52 0.015625-258.65 0.007813-38.355 0.070312-78.184 12.492-99.227 48.266-14.309 24.324-18.25 53.18-18.023 80.34 0.30859 37.293 8.4805 74.562 20.457 109.92 7.418 21.898 18.75 43.43 38.133 55.816 3.418 2.1836 7.0195 4.0703 10.738 5.6797 90.691-48.34 200.65-55.836 297.48-19.625 2.3438 0.87891 4.6758 1.7812 7.0039 2.7031 8.7305 3.4844 17.344 7.2812 25.812 11.469 18.172 8.9258 35.594 19.375 51.992 31.262 26.918 19.512 50.918 42.797 71.406 68.883zm-484.98-89.023c-11.219 33.77-43.039 60.555-77.055 73.824-11.027 4.3008-22.598 7.3516-34.355 8.5547 6.7617 16.359 12.512 33.055 16.168 50.438 21.969-2.332 42.691-12.738 61.785-25.078 25.426-16.434 49.66-36.793 63.125-63.629 0.69531-1.3945 1.3516-2.8086 1.9531-4.2422 2.9844-7.1406 4.8242-15.445 1.3906-22.074l-0.16406 0.089844-5.1406-1.9141c-10.016-3.7852-19.414-9.1953-27.707-15.969z" fill-rule="evenodd"/>
</svg>
